<svg xmlns="http://www.w3.org/2000/svg" id="Layer_1" version="1.1" viewBox="0 0 1100 1100">
  <defs id="defs1">
    <style id="style1">
      .cls-1{fill:none;stroke:#000;stroke-linejoin:round;stroke-width:8px}
    </style>
  </defs>
  <path fill="#fff" stroke-width="0" d="M4 4h1092v1092H4z"/>
  <path id="path1" fill="#42cc33" stroke-width="0" d="M1092 8v1084H8V8zm8-8H0v1100h1100z"/>
  <path id="path2" d="M880 550h212.24" class="cls-1"/>
  <path id="path4" d="M9.388 550H220" class="cls-1"/>
  <path id="path1271" d="M302.5 467.5V319h198" class="cls-1"/>
  <path id="path1273" d="M715 220H500.5v198H715" class="cls-1"/>
  <path id="path1275-0" d="M632.5 319H880v438.9H774.4L668.8 880 517 652.3l-94.6 105.6H302.5V632.5" class="cls-1"/>
  <path id="path1277" d="M633.6 253v132" class="cls-1"/>
  <path id="path6" d="M220 467.5h165v165H220zm0 165 165-165m-165 110 110-110m-55 165 110-110m-165 0 55-55m55 165 55-55" class="cls-1"/>
</svg>
